<svg width="50" height="50" viewBox="0 0 50 50" fill="none" xmlns="http://www.w3.org/2000/svg">
<circle cx="25" cy="25" r="25" fill="#169D16"/>
<path d="M24.0252 34V31.85C23.1419 31.65 22.3795 31.2667 21.7382 30.7C21.0962 30.1333 20.6252 29.3333 20.3252 28.3L22.1752 27.55C22.4252 28.35 22.7962 28.9583 23.2882 29.375C23.7795 29.7917 24.4252 30 25.2252 30C25.9085 30 26.4879 29.846 26.9632 29.538C27.4379 29.2293 27.6752 28.75 27.6752 28.1C27.6752 27.5167 27.4919 27.054 27.1252 26.712C26.7585 26.3707 25.9085 25.9833 24.5752 25.55C23.1419 25.1 22.1585 24.5627 21.6252 23.938C21.0919 23.3127 20.8252 22.55 20.8252 21.65C20.8252 20.5667 21.1752 19.725 21.8752 19.125C22.5752 18.525 23.2919 18.1833 24.0252 18.1V16H26.0252V18.1C26.8585 18.2333 27.5462 18.5373 28.0882 19.012C28.6295 19.4873 29.0252 20.0667 29.2752 20.75L27.4252 21.55C27.2252 21.0167 26.9419 20.6167 26.5752 20.35C26.2085 20.0833 25.7085 19.95 25.0752 19.95C24.3419 19.95 23.7835 20.1127 23.4002 20.438C23.0169 20.7627 22.8252 21.1667 22.8252 21.65C22.8252 22.2 23.0752 22.6333 23.5752 22.95C24.0752 23.2667 24.9419 23.6 26.1752 23.95C27.3252 24.2833 28.1962 24.8123 28.7882 25.537C29.3795 26.2623 29.6752 27.1 29.6752 28.05C29.6752 29.2333 29.3252 30.1333 28.6252 30.75C27.9252 31.3667 27.0585 31.75 26.0252 31.9V34H24.0252Z" fill="white"/>
</svg>
