<svg width="24" height="25" viewBox="0 0 24 25" fill="none" xmlns="http://www.w3.org/2000/svg">
<path opacity="0.4" d="M22 16.44C22 19.23 19.76 21.49 16.97 21.5H16.96H7.05C4.27 21.5 2 19.25 2 16.46V16.45C2 16.45 2.006 12.024 2.014 9.798C2.015 9.38 2.495 9.146 2.822 9.406C5.198 11.291 9.447 14.728 9.5 14.773C10.21 15.342 11.11 15.663 12.03 15.663C12.95 15.663 13.85 15.342 14.56 14.762C14.613 14.727 18.767 11.393 21.179 9.477C21.507 9.216 21.989 9.45 21.99 9.867C22 12.076 22 16.44 22 16.44Z" fill="#8A92A6"/>
<path d="M21.4759 6.17351C20.6099 4.54151 18.9059 3.49951 17.0299 3.49951H7.04988C5.17388 3.49951 3.46988 4.54151 2.60388 6.17351C2.40988 6.53851 2.50188 6.99351 2.82488 7.25151L10.2499 13.1905C10.7699 13.6105 11.3999 13.8195 12.0299 13.8195C12.0339 13.8195 12.0369 13.8195 12.0399 13.8195C12.0429 13.8195 12.0469 13.8195 12.0499 13.8195C12.6799 13.8195 13.3099 13.6105 13.8299 13.1905L21.2549 7.25151C21.5779 6.99351 21.6699 6.53851 21.4759 6.17351Z" fill="#8A92A6"/>
</svg>
