<svg width="32" height="32" viewBox="0 0 32 32" fill="none" xmlns="http://www.w3.org/2000/svg">
<path d="M8.49915 3.00019C3.14915 6.10019 0.449145 11.9502 1.09914 17.6502L24.8991 3.95019C20.2491 0.50019 13.8491 -0.0498102 8.49915 3.00019Z" fill="#83BF4F"/>
<path d="M7.09961 28.0498C11.7496 31.4998 18.1996 32.0498 23.4996 28.9498C28.8496 25.8998 31.5496 20.0498 30.8996 14.2998L7.09961 28.0498Z" fill="#428BC1"/>
<path d="M29 8.4998C28.3 7.2998 27.45 6.2498 26.5 5.2998L1.5 19.7498C1.85 21.0498 2.35 22.2998 3 23.4998C3.7 24.6998 4.55 25.7498 5.5 26.6998L30.5 12.2498C30.2 10.9498 29.7 9.6998 29 8.4998Z" fill="#3E4347"/>
<path d="M30.7496 13.2502C30.6996 12.9002 30.5996 12.5502 30.4996 12.2502L5.49961 26.7002C5.74961 26.9502 5.99961 27.2002 6.24961 27.4002C6.49961 27.6502 6.79961 27.8502 7.09961 28.0502L30.8996 14.3002L30.7496 13.2502M25.7496 4.6002C25.4996 4.3502 25.1996 4.1502 24.8996 3.9502L1.09961 17.6502L1.24961 18.7002C1.29961 19.0502 1.39961 19.4002 1.49961 19.7002L26.4996 5.3002C26.2496 5.0502 25.9996 4.8002 25.7496 4.6002" fill="#FFCE31"/>
</svg>
