<svg width="50" height="50" viewBox="0 0 50 50" fill="none" xmlns="http://www.w3.org/2000/svg">
<circle cx="25" cy="25" r="25" fill="#D49DFF"/>
<path d="M31.36 25.7953C32.8149 25.7953 34.1322 25.8779 34.9426 26.0319C34.9552 26.0319 35.6967 26.1844 35.9439 26.2827C36.3006 26.4366 36.6026 26.7146 36.795 27.0624C36.9326 27.3403 37 27.6339 37 27.9404C36.9874 28.2596 36.7809 28.8597 36.684 29.0963C36.0815 30.6556 34.1041 33.6359 32.8978 34.779C32.7054 34.9729 32.4722 35.1824 32.4175 35.238C32.1141 35.4746 31.7448 35.6 31.3473 35.6C30.9892 35.6 30.6325 35.4888 30.3446 35.2651C30.195 35.1582 29.9767 34.9454 29.8769 34.8457L29.8236 34.7918C28.5737 33.6231 26.6946 30.7112 26.0907 29.2345C26.0778 29.2345 25.777 28.498 25.7161 28.0535L25.7059 27.9404V27.8848C25.7059 27.2434 26.0626 26.6447 26.6398 26.3383C26.9558 26.1715 27.8743 26.0176 27.8883 26.0034C28.7113 25.8779 29.9738 25.7953 31.36 25.7953ZM18.6466 25.8686C19.2217 25.8686 19.6951 26.3074 19.7598 26.8733L19.7673 27.006L20.0749 32.5005C20.0749 33.3015 19.4359 33.95 18.6466 33.95C17.9067 33.95 17.2976 33.38 17.2244 32.6488L17.217 32.5005L17.5259 27.006C17.5259 26.3775 18.0273 25.8686 18.6466 25.8686ZM18.6541 14C19.0094 14 19.3661 14.1112 19.6554 14.3335C19.7801 14.4235 19.9524 14.5864 20.0642 14.6959L20.1764 14.8081C21.4249 15.9783 23.3054 18.8887 23.9093 20.3653C23.9209 20.3653 24.2228 21.1031 24.2838 21.5477L24.2941 21.6609V21.7165C24.2941 22.3564 23.936 22.9551 23.3602 23.2615C23.0442 23.4297 22.1257 23.5822 22.1117 23.5964C21.2887 23.7219 20.0262 23.8045 18.64 23.8045C17.1851 23.8045 15.8678 23.7219 15.0574 23.5679C15.0434 23.5679 14.3033 23.4154 14.0561 23.3171C13.6994 23.1646 13.3974 22.8852 13.205 22.5375C13.0674 22.2595 13 21.9659 13 21.6609C13.0126 21.3402 13.2191 20.7416 13.3146 20.505C13.9185 18.9443 15.8945 15.964 17.1022 14.8224C17.2946 14.6271 17.5278 14.4176 17.5825 14.362C17.8845 14.1254 18.2552 14 18.6541 14ZM31.3536 15.65C32.0936 15.65 32.7015 16.22 32.7745 16.9513L32.7819 17.0995L32.4743 22.5941C32.4743 23.2227 31.973 23.7315 31.3536 23.7315C30.7785 23.7315 30.3052 23.2928 30.2405 22.7269L30.2329 22.5941L29.924 17.0995C29.924 16.2985 30.5644 15.65 31.3536 15.65Z" fill="white"/>
</svg>
