<svg width="91" height="83" viewBox="0 0 91 83" fill="none" xmlns="http://www.w3.org/2000/svg">
<path fill-rule="evenodd" clip-rule="evenodd" d="M40.0557 78.3346C40.3862 78.6053 40.6895 78.8032 41.0156 79.1206C44.1944 82.207 45.2239 83.4757 48.8897 80.6155C49.4191 80.2023 49.9258 79.812 50.3986 79.3316C50.953 78.7685 51.5923 78.3325 52.138 77.7792C53.1696 76.7355 54.2122 75.7038 55.2613 74.6537L64.9465 65.3336C66.2859 63.9954 67.5165 62.6213 69.0092 61.4189L79.3728 51.2715C79.9251 50.715 80.5611 50.2692 81.1156 49.7203C81.6189 49.2223 82.1103 48.7157 82.6126 48.2179L85.4641 44.8478C86.6752 43.2377 87.8949 41.1385 88.6603 39.2219C90.5976 34.3668 90.8857 32.0729 90.8857 26.8536C90.8857 20.8461 87.2612 12.1817 82.6996 8.22345C79.5578 5.49805 78.4989 4.50657 74.6613 2.61277C66.4415 -1.44117 56.18 -0.575809 48.3841 4.06959C47.7829 4.42725 47.2285 4.82405 46.6067 5.1524L45.811 5.57426L45.014 5.1524C42.3387 3.73699 41.0786 2.74334 38.0619 1.61166C27.4677 -2.36285 14.9854 1.27357 7.57437 9.66402C5.94369 11.51 4.58472 13.731 3.47695 15.9259C1.95064 18.9482 0.736328 23.2564 0.736328 26.6712C0.736328 33.269 1.46904 37.3881 4.94682 43.0629C5.31214 43.6576 5.69807 44.2316 6.11444 44.7915C6.53733 45.3612 6.97006 45.9591 7.42547 46.4504L26.5894 65.248C27.1069 65.7656 27.6059 66.2895 28.1256 66.7929L40.0557 78.3349V78.3347V78.3346ZM44.8619 76.5049C43.8042 75.795 42.8116 74.6002 41.906 73.685C41.5027 73.2773 41.0494 72.9543 40.5906 72.5489L28.3995 60.7275C27.5047 59.8327 26.6155 58.9511 25.749 58.0737L14.8766 47.5677C12.7349 45.401 11.2706 44.4368 9.45616 41.7255C8.68317 40.5687 7.91784 39.4186 7.34822 38.1434C4.34448 31.4141 4.55324 25.0935 7.29717 18.3294C10.3901 10.7075 19.4741 4.50325 27.7221 4.50325C32.9915 4.50325 37.0281 5.0327 41.4092 8.22127C43.029 9.39976 44.0715 11.0815 46.1774 11.0815C46.9047 11.0815 48.1386 9.86169 48.6745 9.42793C51.1108 7.45263 53.6101 6.22309 56.6084 5.28701C63.7487 3.05947 71.8413 4.94779 77.6074 9.60178C79.262 10.9379 80.6655 12.5697 81.9419 14.2634C88.2234 22.5995 87.8266 35.3256 81.0362 43.2551C80.8395 43.4856 80.6112 43.6802 80.4198 43.9052L80.3742 43.9595L72.9654 51.3444C71.0215 53.0589 69.3321 54.8917 67.5004 56.6388L63.3997 60.5492C62.9899 60.959 62.5659 61.3831 62.1441 61.8092C61.6603 62.2983 61.1255 62.6517 60.6591 63.0996L56.6606 67.1154C56.1899 67.5872 55.6463 67.9308 55.1799 68.3983L46.0046 77.2725L44.862 76.505H44.8618L44.8619 76.5049Z" fill="#0668CC"/>
<path fill-rule="evenodd" clip-rule="evenodd" d="M28.27 34.9504C26.5001 34.9504 24.7314 34.946 22.9615 34.9438C18.9849 34.9395 19.8165 39.4033 22.057 39.4033H30.4628C31.2347 39.4033 31.7412 38.9359 32.1544 38.3325L38.0597 29.7147L47.1525 45.1162C48.4027 47.2339 49.5637 48.2525 51.4739 46.3479L61.1624 36.6887C62.8442 35.0124 65.0261 35.5646 67.1906 35.5658C68.78 35.5669 70.1813 35.9039 71.1423 34.4177C71.9719 33.1349 71.0053 31.1139 69.565 31.1139H61.1592C60.4721 31.1139 59.3872 32.1455 58.9317 32.5902L50.0215 41.272L40.7287 25.6804C39.8905 24.2737 39.5829 23.2561 37.7707 23.2561C36.9085 23.2561 36.3737 23.8812 35.9367 24.5324L29.1965 34.9504H28.2703H28.27Z" fill="#48B048"/>
</svg>
