<svg width="83" height="83" viewBox="0 0 83 83" fill="none" xmlns="http://www.w3.org/2000/svg">
<path fill-rule="evenodd" clip-rule="evenodd" d="M75.7008 34.9849C75.7008 43.6527 75.7008 52.3195 75.7008 60.9872C75.7008 65.5352 75.8358 70.0861 75.7071 74.633C75.598 78.4715 72.8278 82.3672 68.7398 82.3672H13.6165C11.6748 82.3672 9.89518 81.2995 8.60137 79.914C7.22865 78.4424 6.70741 76.4431 6.64931 74.4762C6.51841 69.9813 6.65554 65.4822 6.65554 60.9873C6.65554 52.3216 6.65554 43.6559 6.65554 34.9912C3.97042 36.3414 2.88114 34.689 1.13782 32.2952C0.643627 31.617 0.17003 30.8142 0.0123059 29.9792L0.00195312 29.922V28.926L0.0154744 28.8617C0.321732 27.4118 1.80348 26.5675 2.901 25.7439C6.02432 23.3989 9.38957 21.3611 12.5492 19.0608C13.6582 18.2538 14.9135 18.0918 14.899 16.6379C14.8814 14.8381 14.8928 13.0382 14.8928 11.2384C14.8928 9.43857 14.5387 7.5442 15.7141 6.00814C16.7555 4.64558 18.0659 3.95802 19.7958 3.95802C23.567 3.95802 27.7651 3.6537 28.2874 8.18083C28.6062 7.96791 28.927 7.72488 29.117 7.58467L37.1745 2.00965C38.2461 1.25044 39.4423 0.17868 40.8274 0H41.546C42.2178 0.0851664 42.791 0.348907 43.3112 0.708275L49.6845 5.1159C50.1237 5.43575 50.5838 5.70583 51.0063 6.02261L53.5119 7.77983C53.948 8.08615 54.4038 8.36036 54.841 8.66467L80.1867 26.2486C81.0963 26.879 82.1014 27.7253 82.3412 28.8637L82.3547 28.928V29.8845L82.3433 29.9437C82.1793 30.8005 81.6518 31.6583 81.1721 32.3749C79.5387 34.8103 78.2419 36.2332 75.701 34.9849H75.7008ZM10.7581 32.2482V70.809C10.7581 74.2082 9.94293 78.4216 14.7245 78.4216H67.632C69.1967 78.4216 70.5424 77.9272 71.2453 76.4608C71.8788 75.1419 71.5984 72.184 71.5984 70.649V32.2326C70.5539 31.6646 68.6007 30.1763 67.8833 29.6954C67.2209 29.2529 66.5854 28.7731 65.9218 28.3318C65.2895 27.9111 64.6862 27.4521 64.0487 27.0284L41.1825 11.21L39.6022 12.3327C38.9688 12.8084 38.2763 13.2051 37.6377 13.6849C36.9981 14.1658 36.3096 14.5677 35.668 15.0434C35.0481 15.5045 34.4053 15.9282 33.7615 16.3551C27.2117 20.6943 20.9256 25.4218 14.3737 29.7578C13.7091 30.1971 13.0758 30.6811 12.4113 31.1214C11.944 31.4309 11.3262 31.9502 10.7583 32.2482H10.7581ZM18.8373 14.7132C20.5007 13.5925 22.9388 11.6079 24.2606 10.965C24.3363 9.9483 24.5285 8.06217 23.595 8.06217C22.9274 8.06217 19.6296 7.91889 19.1178 8.20862C18.7243 8.43094 18.8374 10.5319 18.8374 10.9224C18.8374 12.1863 18.8374 13.4492 18.8374 14.7132H18.8373ZM5.25789 31.1557C5.85498 30.7818 6.41562 30.3373 7.00025 29.9499C7.76024 29.4473 8.48918 28.902 9.24822 28.3983C9.6241 28.1491 9.97399 27.8677 10.3447 27.6111L22.6034 19.1219C22.9782 18.8571 23.3707 18.613 23.7549 18.3554C24.1328 18.102 24.4838 17.8164 24.8576 17.565L33.7623 11.4166C34.5254 10.9077 35.2565 10.3625 36.0165 9.8588C36.7745 9.3572 37.5096 8.82539 38.2614 8.31344C42.0991 5.70139 42.8332 7.51577 46.2441 9.80068C47.001 10.3075 47.7341 10.8486 48.4983 11.3533L55.2475 16.0113C55.6264 16.2627 55.9805 16.5472 56.3585 16.8088L68.5351 25.2368C70.0511 26.3408 71.6128 27.4053 73.1516 28.4647C74.0726 29.0983 75.9031 30.4774 77.0225 31.0829C77.3392 30.7318 77.8148 30.0994 78.0817 29.6683L54.9237 13.6588C52.4846 12.0428 50.0694 10.2679 47.6625 8.58447C46.2702 7.61129 42.8654 5.00453 41.2467 4.1872L22.5847 17.0488C20.9659 18.1216 19.4115 19.2776 17.801 20.3431L13.1151 23.5721C12.706 23.8534 12.3186 24.162 11.9044 24.4362C10.4923 25.3709 9.09261 26.3441 7.70119 27.3099C6.91415 27.8572 5.1926 28.9539 4.29337 29.711L5.25799 31.1557L5.25789 31.1556V31.1557Z" fill="#0668CC"/>
<path fill-rule="evenodd" clip-rule="evenodd" d="M22 35.3405C22 34.1885 22.621 33.2539 23.5649 32.6592C24.6371 31.9831 30.0021 31.7591 32.0918 31.0533C34.2023 30.3408 36.1278 29.412 37.7455 27.8415C38.5893 27.0227 39.2822 26 40.5686 26C42.4819 26 42.9915 26.4682 44.1978 27.7582C45.8099 29.4819 47.8138 30.3542 50.0139 31.0868C51.7761 31.6738 53.6809 31.8577 55.5129 32.1C57.5554 32.3709 60 32.3623 60 35.3405V46.8823C60 49.9351 59.1978 53.1727 58.066 55.99C56.653 59.5111 54.0631 63.1107 51.3382 65.7699L45.1172 70.3606C43.9175 71.0846 42.4065 72 41.0002 72C38.5188 72 34.042 68.5574 32.0731 66.9956C30.6601 65.8752 29.2065 64.367 28.1051 62.9306C24.6099 58.3753 22.0002 53.0635 22.0002 47.1733V35.3403H22.0001L22 35.3405ZM41.0029 29.7845C40.6188 30.1206 40.2799 30.543 39.9278 30.8962C37.1264 33.7135 31.0894 35.5808 27.2016 35.7675C26.9043 35.782 25.7141 35.781 25.5527 35.847L25.5857 44.838C25.5857 53.2715 28.7269 59.3992 35.0584 64.6621C36.0891 65.5182 39.8948 68.2167 41.1435 68.2167C42.0657 68.2167 46.1431 65.2472 47.0389 64.5739C48.8728 63.1931 50.4491 61.4225 51.8187 59.5781C57.3572 52.1213 56.4143 44.5496 56.4465 35.8413C56.285 35.7733 54.9486 35.7848 54.6465 35.7618C53.7904 35.6987 52.9248 35.531 52.0763 35.3903C50.5057 35.1289 49.0399 34.7123 47.5495 34.1521C45.8081 33.4981 44.145 32.661 42.7216 31.4373C42.1733 30.9661 41.5768 30.2642 41.0029 29.7844V29.7846V29.7845ZM26.8949 39.5769C26.8949 38.9008 27.4149 37.9528 27.901 37.5018C28.6174 36.8362 30.255 36.6227 31.1952 36.4158C33.3245 35.9466 35.2386 35.2724 37.1962 34.289C38.0381 33.8657 39.7229 32.572 40.5686 32.572C42.8405 32.572 42.9774 33.3688 44.9009 34.3368C45.4398 34.6078 45.957 34.8913 46.5168 35.1192C47.103 35.3585 47.7079 35.5549 48.2988 35.7837C49.9109 36.4071 53.1239 36.5105 54.1876 37.5907C54.7691 38.1805 55.1051 38.8768 55.1051 39.7233V46.8823C55.1051 51.0584 53.0853 56.0072 50.5368 59.241C49.2362 60.891 47.977 62.1703 46.3669 63.5091C45.2257 64.458 42.3129 66.6624 40.8444 66.559C39.3484 66.4528 36.6225 64.2838 35.405 63.3252C33.9401 62.1723 32.462 60.5606 31.3322 59.0677C26.3222 52.4545 26.8951 47.409 26.8951 39.5769H26.8948H26.8949ZM41 62.7325C42.8415 61.6906 45.3229 59.7725 46.5821 58.1858C49.3127 54.7451 50.6189 52.7898 51.2825 48.3034C51.6346 45.9151 51.408 42.9207 51.3779 40.3899C48.0612 39.9772 43.91 38.2563 41.1662 36.4858L40.9765 36.3402C38.0769 38.2363 34.0702 39.9695 30.6222 40.3909C30.5873 42.895 30.3353 46.17 30.7157 48.4376C31.081 50.6122 31.7105 52.7295 32.8404 54.6274C33.8343 56.2974 34.4373 56.8921 35.5171 58.3295L37.6106 60.3481C38.681 61.23 39.7787 62.0459 41 62.7326H41.0001L41 62.7325ZM38.3694 51.0938C39.7361 49.6603 42.26 45.8203 43.3842 44.3015C43.6711 43.9127 43.9571 43.523 44.2411 43.1323C45.5842 41.2831 47.7609 42.1469 47.7609 43.9597C47.7609 44.7851 47.1729 45.3845 46.7208 45.9965L41.4756 53.0923C40.7838 54.0279 39.8588 55.7869 38.5526 55.7869C37.4218 55.7869 34.239 52.557 34.239 51.4098C34.239 50.6188 35.0035 49.6641 35.8163 49.6641C37.5322 49.6641 37.519 50.3516 38.3694 51.0937V51.0938Z" fill="#48B048"/>
</svg>
