<svg width="97" height="97" viewBox="0 0 97 97" fill="none" xmlns="http://www.w3.org/2000/svg">
<path fill-rule="evenodd" clip-rule="evenodd" d="M54.6038 68.3434V53.0352C55.6758 53.0113 62.5018 50.6331 64.2163 50.1604C65.6713 49.7588 73.1649 47.2266 73.908 47.2162C74.4236 47.2095 77.9092 48.3474 78.7142 48.615C80.0134 49.0468 92.3536 53.0157 93.2139 53.0352V68.3434C93.2139 71.8191 92.6715 75.2241 91.6477 77.7405C91.0518 79.2045 90.6744 80.1701 89.8903 81.4664C87.7035 85.0805 85.5108 87.4836 81.8235 89.8536C80.4156 90.7584 75.9972 92.9121 73.909 92.9121C71.0574 92.9121 65.1505 89.7272 62.8852 87.4776C61.8962 86.4952 61.4613 86.3506 60.1716 84.7065C56.413 79.9147 54.6037 74.9723 54.6037 68.3434H54.6038ZM55.929 85.5412C53.6204 82.0994 52.2084 79.2545 51.2432 74.5339C50.4013 70.4177 50.8187 64.2484 50.8187 59.4606C49.0968 60.3707 46.624 61.3507 44.0051 61.3507C40.1666 61.3507 34.9524 59.9669 32.8383 56.8148L22.6972 58.7835C19.9929 59.3234 15.1527 60.0978 13.0885 61.0954C10.2278 62.4778 8.25603 64.1544 6.56778 66.6794C4.96684 69.074 3.88115 71.9737 3.88115 75.9028V85.5412H55.929ZM1.79896 89.3212C0.863645 89.3212 0.0957031 88.5544 0.0957031 87.6204V74.2021C0.0957031 67.6801 4.85268 60.8524 10.8199 57.8848C14.4143 56.0975 22.3466 54.8893 27.1133 53.9331C28.8673 53.5808 30.8622 53.262 32.6493 52.8463C32.6493 48.6484 33.448 48.3711 31.4856 46.8265C31.2022 46.6035 31.0652 46.4517 30.8023 46.1859C28.5296 43.8909 26.322 41.4344 25.4569 37.7272C21.583 37.7272 19.1793 36.7031 17.395 33.4928C16.7182 32.2748 16.5617 31.0307 16.5617 29.6006C16.5617 25.9672 19.9615 22.4347 23.2 22.2439C25.8389 22.0885 24.2991 22.1376 24.7071 16.7568C25.0995 11.5871 28.3948 6.66475 32.4039 3.65315C35.7862 1.11169 39.3215 0.118164 44.1942 0.118164C51.3902 0.118164 58.017 5.16761 60.7156 11.4022C61.3492 12.8655 62.025 15.1101 62.1657 16.947C62.6051 22.6724 61.0281 21.9793 63.8525 22.2551C68.3978 22.6995 73.6648 29.7528 67.6205 35.7946C65.8792 37.5349 63.7522 37.7272 61.4175 37.7272C60.5581 41.4095 56.9556 46.2009 54.0358 47.7436V49.2553C55.6591 48.8777 57.4128 48.1645 59.078 47.6753L66.4477 45.3959C67.3651 45.1361 67.9613 44.8703 68.8787 44.6105C73.6454 43.2605 72.8934 42.6289 77.0552 44.0348C81.8103 45.6412 87.2538 47.1034 92.053 48.7134C93.0009 49.0318 94.0815 49.3286 95.0858 49.6541C96.0072 49.9523 96.9992 50.2752 96.9992 51.523V70.8002C96.9992 76.8715 93.7033 84.0776 89.7565 88.1364C88.6044 89.3215 88.2154 89.8838 86.5654 91.1868C84.0819 93.147 81.8003 94.5022 78.7508 95.668C77.6991 96.0695 75.1575 96.8807 73.909 96.8807C71.5583 96.8807 66.9436 94.8355 64.9525 93.7286C59.7442 90.833 60.6754 89.2854 57.4459 89.3183L1.79896 89.3212V89.3211V89.3212ZM36.6238 49.8223C40.2361 51.5529 46.6387 51.5529 50.251 49.8223V55.303C49.6248 55.47 49.0831 56.0669 47.7679 56.6034C45.1425 57.674 41.8576 57.7054 39.2419 56.6578C38.7255 56.4509 38.3817 56.3062 37.9546 56.0531C37.4958 55.781 37.2132 55.4599 36.624 55.303V49.8223H36.6238ZM28.4854 32.2465V27.5218H44.0052C49.1328 27.5218 53.005 26.0153 56.9154 23.4041C57.4616 23.0395 57.8152 22.5719 58.3894 22.4191C58.3894 25.6313 58.3733 28.8479 58.3916 32.06C58.4102 35.2569 57.5116 37.8345 56.3188 39.8176C55.1094 41.8278 53.6093 43.4648 51.6559 44.7998C47.5676 47.5945 41.4704 47.9971 36.937 45.7296C31.8149 43.1684 28.4853 38.1129 28.4853 32.2463V32.2465H28.4854ZM62.1745 33.3802V26.0097C65.022 26.0097 66.3385 27.712 66.3385 30.3563C66.3385 33.2277 62.1745 34.7168 62.1745 33.3802ZM20.5363 30.3563C20.5363 27.6356 21.8501 26.0097 24.7003 26.0097V33.3802C24.7003 34.5277 22.4057 33.4171 21.9972 33.0554C21.2299 32.3758 20.5362 31.7275 20.5362 30.3562L20.5363 30.3563ZM45.141 23.5528H28.4856C28.4856 19.5936 28.1864 16.5387 29.755 12.9142C30.1608 11.9761 30.5588 11.2678 31.0942 10.4715C35.85 3.39731 45.7884 1.92393 52.2558 6.80975C55.2318 9.0578 57.2072 11.9971 58.0436 15.7879C58.2878 16.8955 58.1048 17.1535 57.4014 17.841C56.2956 18.921 55.467 19.7311 54.1152 20.6072C51.992 21.9837 48.5163 23.5528 45.1412 23.5528H45.141Z" fill="#0668CC"/>
<path fill-rule="evenodd" clip-rule="evenodd" d="M72.2067 70.6112C71.0873 69.8626 69.3012 67.2093 67.8537 67.2093C66.7706 67.2093 65.9612 68.0552 65.9612 69.2885C65.9612 70.2122 66.6295 70.6242 67.1436 71.1312C72.9437 76.855 71.4565 77.1246 77.4591 71.1309C78.6871 69.9047 81.8595 67.371 81.8595 65.6975C81.8595 64.7301 80.8641 63.8077 79.967 63.8077C78.1909 63.8077 74.2116 69.2706 72.2068 70.6112H72.2067ZM62.1757 58.705C63.8622 58.3125 73.3224 55.1141 73.9104 55.1141C74.6437 55.1141 83.8985 58.2987 85.6446 58.705C85.6446 64.2122 86.2487 71.8971 84.0698 76.2202C82.3191 79.6952 80.7854 81.6365 77.3554 83.69C74.3423 85.4933 73.6203 85.598 70.5804 83.7638C60.7611 77.8391 62.1758 68.9433 62.1758 58.7052L62.1757 58.705ZM58.3906 57.1929V70.6112C58.3906 72.771 59.2904 75.9652 60.0278 77.4811C61.8427 81.2141 64.1702 84.465 67.8616 86.6676C73.2047 89.856 74.616 89.856 79.9591 86.6676C83.6472 84.4669 85.9784 81.213 87.7929 77.4811C88.5299 75.9652 89.4301 72.7709 89.4301 70.6112V57.1929C89.4301 55.4404 87.7907 55.3352 86.4242 54.9027C84.8403 54.4017 75.2081 51.1455 73.9103 51.1455C72.745 51.1455 70.8502 51.9776 69.7463 52.2792L61.5392 54.8562C60.1103 55.3219 58.3906 55.3952 58.3906 57.1929Z" fill="#48B048"/>
</svg>
