<svg width="115" height="80" viewBox="0 0 115 80" fill="none" xmlns="http://www.w3.org/2000/svg">
<path fill-rule="evenodd" clip-rule="evenodd" d="M14.2708 62.2107C15.1525 62.4157 16.0671 63 17.1369 63.358C20.0507 64.332 23.2758 63.9942 26.7569 63.9942C26.7569 70.8885 26.4617 70.0142 17.1687 70.0142C13.5442 70.0142 14.2708 65.8245 14.2708 62.2107ZM17.838 39.0209C17.838 37.7939 20.0274 38.6906 20.8717 38.8849C25.5045 39.9547 29.163 39.7412 29.8789 42.8112H17.8379V39.0209H17.838ZM14.2708 40.5814C14.2708 44.5947 14.8508 46.6025 19.3984 46.6025C22.0871 46.6025 30.7022 46.9934 32.454 46.0554C35.0715 44.6543 33.5226 38.0969 28.5267 37.0282C26.2959 36.5513 20.0263 35.0077 18.2841 35.0077C15.197 35.0077 14.2708 37.8654 14.2708 40.5814ZM0 23.4351V21.1831C0 18.8748 2.15113 16.7236 4.45947 16.7236H8.47274C12.1324 16.7236 13.9723 19.4941 15.1619 20.2908C15.2575 19.1446 20.1504 9.86441 21.0534 7.67618C22.9092 3.18056 25.411 0 31.6625 0H71.7977C79.4027 0 80.8388 5.62909 83.1695 10.0344C85.3345 9.8538 86.3214 9.51184 88.5607 9.77099C93.8678 10.384 97.0739 11.9456 101.677 14.2698L107.7 17.1667C110.839 18.5626 114.163 20.7817 114.163 25.1965V47.2708C114.163 51.3287 112.519 56.3777 111.117 59.1651C109.534 62.3148 105.756 67.6794 103.143 69.6978C101 71.3518 99.8401 72.6551 96.9071 74.6109C95.3647 75.6392 88.6733 79.6025 87.183 79.6025C85.5355 79.6025 81.8504 77.5948 80.4502 76.7471C75.7208 73.8822 71.4133 70.6698 67.7303 66.5015C66.8051 65.4541 66.2813 64.2175 65.5548 64.2175H30.3241V68.0078C30.3241 70.8547 27.3741 73.8046 24.5272 73.8046C20.3482 73.8046 15.775 74.4707 13.3392 72.5066C10.1121 69.9028 10.6549 66.2443 10.707 61.0922C10.7324 58.5714 10.5295 59.1376 9.49492 57.6217C7.39581 54.5475 6.46632 50.9569 6.46632 46.8247C6.46632 39.1145 5.58789 33.9593 9.36525 28.3186C7.26098 28.3186 4.42784 28.6511 2.81948 27.951C0.537625 26.9588 0.0766083 25.2741 0.000210059 23.4352L0 23.435V23.4351ZM63.548 45.487V25.8655C63.548 21.3221 68.6088 20.3459 73.2849 17.9875C76.97 16.1275 82.4174 13.3783 86.2905 13.3783C93.9081 13.3783 95.0214 15.3754 100.943 17.9026C102.97 18.7684 108.073 20.9704 109.432 22.3462C110.188 23.11 110.819 23.9853 110.819 25.4194C110.819 30.0711 111.099 42.9662 110.526 46.7553C109.974 50.3989 110.424 50.8377 108.779 55.2664C106.968 60.1486 104.014 63.9187 100.399 67.3988L98.6067 68.9518C96.6149 70.7429 90.2072 74.7222 87.8234 75.5805C86.0132 76.2338 80.4532 72.588 78.7992 71.4853L74.8634 68.5088C73.9955 67.6823 73.1351 67.1288 72.1897 66.0548L69.8536 63.2621C66.0018 58.0856 63.5479 52.6243 63.5479 45.4868L63.548 45.4869V45.487ZM38.5747 45.9332C38.5747 46.7215 38.4282 47.8134 39.9556 48.1194L59.9798 48.163C60.2464 49.3061 60.1858 50.5415 60.6491 51.5071C56.5539 51.5071 44.0827 51.2946 40.3413 51.4901C38.9062 51.5656 38.5747 52.2072 38.5747 53.5138C38.5747 55.6224 40.916 55.0754 43.0342 55.0754H61.3183C61.7815 57.0661 63.3483 59.572 63.548 60.4262L21.404 60.4283C13.746 60.4697 9.81124 53.5234 9.81124 46.6026C9.81124 42.039 9.32153 36.3525 10.7929 32.6441C11.1561 31.7294 12.6677 28.9867 13.6014 28.9867H59.7567V44.3728H41.4726C40.2254 44.3728 38.5747 44.8072 38.5747 45.9333V45.9331V45.9332ZM3.56718 23.1896C3.56718 20.0888 3.63086 20.2906 7.13541 20.2906C11.8159 20.2906 14.0541 24.7501 12.0411 24.7501H4.68268C3.96136 24.7501 3.56728 23.9406 3.56728 23.1895L3.56718 23.1896ZM59.9799 24.5271V25.4194H16.5005C16.663 24.8106 17.6096 23.2003 17.9867 22.4461C18.5274 21.3646 18.932 20.5552 19.4729 19.4738L25.2241 7.38604C26.0103 5.50372 27.8279 3.79133 30.5473 3.79133H72.4671C77.3367 3.79133 78.228 8.32835 79.6015 10.9256C76.0609 12.7995 65.5974 17.0858 62.9672 19.0414C61.7391 19.9561 59.98 22.5236 59.98 24.5271H59.9799Z" fill="#0668CC"/>
<path fill-rule="evenodd" clip-rule="evenodd" d="M72.2425 27.872C73.1699 27.6552 74.7847 26.712 75.7354 26.2372C78.8362 24.6851 83.9107 21.9444 86.9712 21.8616C89.7097 21.7873 92.5674 23.4295 94.7632 24.5269C95.9146 25.1037 97.046 25.5531 98.2591 26.1596C99.2353 26.6483 100.942 27.6489 101.898 27.872C101.898 32.2571 101.898 36.6423 101.898 41.0273C101.898 49.7913 101.704 54.1275 94.9341 60.821C94.3616 61.3872 93.7784 61.8174 93.1336 62.3645C92.5196 62.8872 91.8695 63.3343 91.2299 63.806C90.7223 64.18 87.6161 66.2695 87.1412 66.3045C86.5962 66.3449 83.6728 64.4339 83.0078 63.9314C80.2884 61.8802 78.2541 60.2538 76.1275 57.4324C75.1152 56.0896 74.3641 54.8531 73.6725 53.1991C71.9697 49.1295 72.2426 46.7468 72.2426 41.2505C72.2426 36.7912 72.2426 32.3316 72.2426 27.8722L72.2425 27.8721V27.872ZM85.621 49.0539C83.6431 48.5259 81.2264 44.8175 78.9318 44.8175C77.7229 44.8175 75.6792 46.3419 78.7045 48.6131C86.5208 54.4812 85.4787 55.2853 89.5388 49.8506L96.1313 41.2812C96.535 40.7776 97.4677 39.6601 97.5802 38.9409C97.7407 37.9212 96.826 36.791 95.8774 36.791C94.3445 36.791 91.9034 40.8085 90.4746 42.5369L86.8001 47.3353C86.3614 47.9205 85.7995 48.3837 85.6209 49.0541L85.621 49.054V49.0539ZM68.4512 26.9797V46.3792C68.4512 52.0752 71.0931 57.3346 74.5211 61.2682C77.0696 64.1927 79.7954 66.4543 83.1544 68.4663C86.9999 70.7704 86.8002 70.8607 90.6233 68.5513C93.8729 66.5882 94.1575 66.0166 96.6412 64.0886C101.388 60.4014 105.466 52.8006 105.466 46.3791V26.9796C105.466 25.0047 102.068 24.0753 99.5189 22.8929C93.6943 20.1947 88.2203 16.2941 81.5323 19.5467C80.6856 19.9579 80.0611 20.1671 79.2261 20.5856C78.3539 21.0212 77.7251 21.3431 76.853 21.7797L72.3181 23.934C70.8935 24.652 68.4513 25.1153 68.4513 26.9796L68.4512 26.9797Z" fill="#5BB500"/>
</svg>
