<svg width="86" height="86" viewBox="0 0 86 86" fill="none" xmlns="http://www.w3.org/2000/svg">
<path fill-rule="evenodd" clip-rule="evenodd" d="M78.7239 18.9691C78.8278 19.2443 79.0149 19.41 79.2168 19.7294C79.4519 20.1017 79.6685 20.4828 79.8938 20.86C80.956 22.6344 81.6175 24.0022 82.4895 25.8587C82.906 26.7474 83.2646 27.6732 83.5801 28.6021C84.2474 30.5655 84.7912 32.5201 85.2302 34.5472C86.0034 38.1194 86.0005 40.8587 86.0005 44.4634C86.0005 50.9307 83.5057 59.243 80.1623 64.7551C75.5813 72.306 69.2845 78.3844 61.1554 82.0085L57.4789 83.5477C56.2011 84.0435 54.8704 84.3912 53.5486 84.7214C49.0959 85.8325 46.1474 85.9892 41.6018 85.9892C35.1316 85.9892 26.8399 83.5075 21.3074 80.1518C16.0532 76.9656 11.2567 72.8437 7.82318 67.7109C6.30239 65.4378 5.29512 63.6077 4.06435 61.1711C0.97374 55.0496 0.0703125 48.5774 0.0703125 41.7749C0.0703125 35.1244 2.45046 27.1041 5.86529 21.4432C8.32381 17.3654 11.6211 13.0506 15.3859 10.1054C15.8857 9.71448 16.3845 9.32355 16.8743 8.91995C23.1426 3.75077 33.6461 0.0708008 41.7801 0.0708008C48.9617 0.0708008 53.1026 0.78504 59.7834 3.43326C61.9098 4.27584 63.9049 5.42507 65.8617 6.59988C66.7583 7.1387 68.9767 9.13546 69.9145 8.95714C72.2829 8.50742 73.9615 8.49957 76.2426 9.38138C78.2925 10.174 80.1807 8.6407 82.3659 10.6746C83.9347 12.1345 84.1022 14.5143 82.9166 16.2642C82.3061 17.1656 80.0495 18.495 78.7237 18.9693L78.7239 18.9692V18.9691ZM27.6327 6.70156C25.8866 7.30208 21.8768 9.63795 20.8734 10.3873C19.7994 11.1897 18.6422 11.9177 17.6701 12.8436C17.1803 13.3109 16.6325 13.6959 16.1553 14.177C12.4484 17.9256 10.0359 20.808 7.6557 25.5373L6.15447 29.0232C8.09172 30.1803 10.221 32.3426 12.3729 32.3426C13.3949 32.3426 14.508 30.8367 14.8697 29.9951C15.7241 28.0052 15.8212 25.6097 16.6501 23.4905C17.9445 20.1779 20.4775 18.2047 23.6612 16.7881C28.6733 14.5582 27.6836 15.0989 27.3857 9.63494L27.6327 6.70156V6.70167V6.70156ZM81.9957 36.6566C81.8369 34.8225 80.8531 31.556 80.3191 30.0266C79.6107 28.0015 78.6964 25.891 77.6548 24.0227L75.6166 20.6034C74.3722 20.96 70.9788 22.8587 69.9608 23.3682C66.1333 25.2807 67.4395 24.156 66.9633 28.703L66.4254 34.9774C66.2647 36.5214 66.539 37.8088 64.8517 38.5476C63.7582 39.0266 61.231 40.316 60.0954 40.4033C58.7226 40.5081 58.3346 39.1972 58.0258 38.1156L55.9759 30.5157C54.312 31.083 50.0603 33.3383 48.8286 33.9507C46.2975 35.2087 43.3169 36.5755 40.9121 38.0206C39.407 38.9249 37.7333 39.3276 35.9921 38.9622C33.2905 38.3949 29.8726 34.2653 27.6141 32.5419C25.3437 30.8106 26.0109 29.4762 28.1619 28.179C30.0099 27.066 32.0618 26.8387 34.0363 27.7832C34.4939 28.0017 35.5571 28.6591 36.1098 28.7472L46.8787 22.3376C47.4608 21.9614 48.0555 21.596 48.6571 21.2365C49.0902 20.9777 49.5733 20.629 50.0613 20.387C49.2734 19.4563 46.8013 17.4879 46.1957 16.9784C45.1776 16.1221 43.8234 15.2933 43.8234 13.805C43.8234 13.0182 47.9409 9.3472 48.763 9.14137C49.6419 8.92188 54.3121 10.8726 55.2842 11.2576C56.2268 11.6329 60.6471 13.5248 61.3653 13.5816C62.0101 13.3043 63.1702 12.498 63.8767 12.0718C64.2677 11.8367 65.3339 11.2626 65.9404 10.8236L64.0512 9.61559C63.2407 9.11987 62.4246 8.63285 61.5838 8.18023C58.0572 6.28248 53.9369 4.84905 49.98 4.20049C43.6481 3.161 38.8232 3.3462 32.6097 4.96965C31.5387 5.2489 31.5446 5.07746 31.323 6.04536C30.4167 10.0055 32.4745 15.1806 29.3064 17.8788C28.2854 18.7488 27.1174 19.1819 25.8964 19.6894C23.3312 20.7574 20.9108 22.1574 19.9133 24.89C19.1304 27.0327 19.151 29.1352 18.1182 31.3377C15.9213 36.0248 12.089 37.3103 7.70891 34.3749C7.13175 33.9879 6.57318 33.5774 6.01859 33.1581C5.70114 32.9181 5.38853 32.6173 5.03776 32.4047C4.90156 33.0954 4.66345 33.7793 4.50768 34.4572C1.75612 46.3887 4.99756 59.0813 12.8544 68.4232C13.4559 69.1384 14.0606 69.7841 14.72 70.4445C15.0277 70.7521 16.8837 72.6195 17.4667 72.9457C17.9547 72.5137 18.371 72.6577 18.9708 72.9869C19.9899 73.5444 19.7763 73.6786 20.032 74.5183C20.2858 75.3549 22.2622 76.5464 22.9374 76.9519C24.4494 77.8612 25.8938 78.4754 27.4008 79.2348C27.5517 78.3628 27.9103 77.433 28.268 76.7051C28.8471 75.5284 29.5233 74.7456 30.4395 73.8247C32.2082 72.0444 35.1889 70.6248 37.5083 69.694C41.2555 68.191 41.959 68.4644 42.6841 63.8644C43.0046 61.8305 42.9282 58.6629 42.9781 56.5496C43.0398 53.9043 43.1114 51.2345 43.1055 48.5892C43.1006 46.2995 43.3436 43.8766 44.8811 42.0611C47.3337 39.1639 50.5164 39.1032 53.9264 40.03C56.2409 40.659 59.8587 42.3834 62.0438 42.3834C64.5974 42.3834 66.5229 41.6232 68.7795 40.565C71.5516 39.2658 73.9014 38.1725 76.9302 37.4826C78.4715 37.1309 80.3627 36.7282 81.9962 36.6567L81.9957 36.6565V36.6566ZM53.2997 18.4516C54.2629 17.9265 56.454 16.6763 57.5348 15.9278L51.4144 13.593C50.7657 13.3618 50.1572 13.0884 49.4948 12.9013C49.0921 13.3736 48.6128 13.646 48.219 14.0447C49.1204 14.6609 49.9288 15.577 50.7422 16.2639L52.8842 18.0724C53.04 18.2096 53.1595 18.3331 53.2997 18.4516ZM67.5982 20.5463L73.9087 17.3915C75.1041 16.7939 76.2986 16.1952 77.4951 15.5976C78.0301 15.33 80.2241 14.5061 80.2241 13.8046C80.2241 12.5828 78.1516 13.1961 77.4627 13.1961C75.2071 13.1961 76.0458 13.0571 74.4173 12.4711C71.6677 11.4816 69.7422 12.6818 67.4944 14.0368L40.9798 30.0176C40.0165 30.5976 37.7609 32.1838 36.7379 32.4591C35.6963 32.7393 34.6399 32.0065 33.7405 31.5529C32.0051 30.677 32.0659 30.7142 31.0399 30.8494C31.9806 31.5558 33.2583 32.8423 33.8512 33.3154C34.9153 34.1649 35.8276 35.5698 37.2975 35.5698C38.6998 35.5698 48.7916 30.0381 50.8962 28.9859C51.688 28.5901 54.5767 27.3096 54.9794 26.9568C54.9411 24.187 52.1965 24.3507 57.0401 21.7043C58.0033 21.1782 58.945 20.6158 59.9081 20.0897C60.9606 19.5155 65.1387 16.9251 65.9874 16.9251C68.0775 16.9251 67.7717 19.0267 67.5983 20.5463H67.5982ZM61.1859 36.2214C61.4475 36.1567 61.6573 36.0558 61.9678 35.9138C62.251 35.7834 62.546 35.6767 62.8321 35.5552C62.8655 31.1884 63.5984 26.2789 64.0099 21.819L58.0973 25.1541C58.3159 26.0212 58.5833 26.8804 58.8293 27.7417L60.4549 33.6418C60.6901 34.4491 61.033 35.3602 61.1859 36.2214ZM82.3906 40.2736C76.477 40.3833 73.4002 42.6368 68.1362 44.7216C58.696 48.4604 57.7249 43.1384 50.3885 43.1384C46.3278 43.1384 46.4562 48.144 46.472 51.0538C46.4994 56.1201 47.152 61.8115 45.7017 66.7162C44.711 70.0689 43.2461 71.4523 39.9762 72.5389C39.113 72.826 38.2908 73.2139 37.4501 73.5579C34.5271 74.7521 30.7711 77.0977 30.7408 80.6062C30.8211 80.6179 31.3611 80.7041 31.5286 80.7541C31.8912 80.861 32.2498 80.9912 32.6133 81.0911C34.8103 81.6898 37.9037 82.3589 40.1673 82.3657C41.1394 82.3688 42.0615 82.5607 43.0374 82.5538C45.5379 82.5352 48.5757 82.1658 51.0321 81.676C69.6206 77.9735 82.5551 61.2736 82.5551 42.4928C82.5551 41.7462 82.4326 41.0222 82.3905 40.2737L82.3906 40.2736Z" fill="#0668CC"/>
<path fill-rule="evenodd" clip-rule="evenodd" d="M14.4163 64.3659C14.4163 63.2381 15.1914 62.4632 16.3193 62.4632C18.5623 62.4632 17.9342 65.7502 18.0478 67.1885C18.1673 68.7208 19.1178 71.2878 16.4976 71.2878C14.0979 71.2878 14.4163 65.951 14.4163 64.3659ZM22.7728 42.7418C24.3015 42.7418 24.6758 43.4179 24.6758 44.8228V44.9472L22.0075 49.6195C20.8072 51.7221 18.5407 50.8335 18.5407 49.1257C18.5407 48.0579 21.5166 42.7418 22.7728 42.7418V42.7419V42.7418ZM15.2552 59.8491C14.6496 58.7313 16.2576 52.2443 17.9332 52.2443C19.0278 52.2443 20.0126 52.7283 20.0126 53.9667C20.0126 54.3959 19.5756 55.4049 19.4306 55.8732C18.8034 57.8945 19.113 60.7083 16.4978 60.7083C15.9471 60.7083 15.5041 60.3096 15.2553 59.8491H15.2552ZM75.2045 28.1493C75.2045 27.1558 75.9943 26.6062 76.9261 26.6062C78.4821 26.6062 78.6811 27.9592 79.1289 29.0751C79.4923 29.9813 80.0842 31.3012 80.0842 32.2721C80.0842 33.2763 79.4199 34.1748 78.3606 34.1748C76.8712 34.1748 76.6095 32.5042 76.2391 31.4119C75.8902 30.3812 75.2043 29.2564 75.2043 28.1493H75.2045ZM29.6958 38.3691C29.6958 39.9523 28.662 40.4363 27.6361 41.4445C26.2456 42.8123 24.4573 42.2156 24.4573 40.161C24.4573 39.3126 27.0972 36.825 27.9742 36.825C28.7228 36.825 29.6959 37.5824 29.6959 38.3691H29.6958Z" fill="#5BB500"/>
</svg>
